<svg id="Layer_1" data-name="Layer 1" xmlns="http://www.w3.org/2000/svg" viewBox="0 0 769.36 166.7"><defs><style>.cls-1{fill:#fff;}.cls-2{fill:#44c5ee;}.cls-2,.cls-3,.cls-4,.cls-5,.cls-6{fill-rule:evenodd;}.cls-3{fill:#e84282;}.cls-4{fill:#5c499d;}.cls-5{fill:#fcbe41;}.cls-6{fill:#66b74d;}</style></defs><title>horiz svg</title><path class="cls-1" d="M213.47,47.22q9,7.56,9,23.31t-9.24,23.06q-9.23,7.32-28.33,7.31H169.59v25.41H155V39.66h29.75Q204.42,39.66,213.47,47.22ZM203.12,83q4.4-4.65,4.4-13.64t-5.58-12.71q-5.58-3.72-17.48-3.72H169.59V87.64h17Q198.72,87.64,203.12,83Z"/><path class="cls-1" d="M272.36,73.38q-10.29,0-15.5,6.7t-5.21,18v28.27H237.77v-66h13.89V73.63a28.76,28.76,0,0,1,9.11-10.17A22,22,0,0,1,273,59.37l.12,14Z"/><path class="cls-1" d="M342.15,117.45q-9.92,9.86-24.79,9.85t-24.79-9.85a32.69,32.69,0,0,1-9.92-24.11,32.69,32.69,0,0,1,9.92-24.11q9.92-9.86,24.79-9.86t24.79,9.86a32.7,32.7,0,0,1,9.92,24.11A32.69,32.69,0,0,1,342.15,117.45Zm-39.73-8.55a21.56,21.56,0,0,0,29.88,0q5.89-6,5.89-15.56t-5.89-15.56a21.56,21.56,0,0,0-29.88,0q-5.89,6-5.89,15.56T302.42,108.9Z"/><path class="cls-1" d="M414.79,106.61q0,9.42-6.82,15.06t-17.48,5.64a46.84,46.84,0,0,1-14.94-2.6,44.87,44.87,0,0,1-13.7-7.31l6.7-10.78q11.53,8.68,22.31,8.68a11.63,11.63,0,0,0,7.44-2.17A6.75,6.75,0,0,0,401,107.6q0-5-13.14-8.93a15.26,15.26,0,0,0-1.49-.49q-20.58-5.58-20.58-18.6A17.65,17.65,0,0,1,373,64.89q7.13-5.51,18.53-5.52a38.56,38.56,0,0,1,21.57,6.7l-5.21,10.29A31.08,31.08,0,0,0,390.37,71a16,16,0,0,0-8.06,1.8,5.85,5.85,0,0,0-3.1,5.39,4.92,4.92,0,0,0,3.22,4.71A31,31,0,0,0,388.7,85q4,1,7.13,2t6,2.23a38.93,38.93,0,0,1,6.26,3.47Q414.79,97.18,414.79,106.61Z"/><path class="cls-1" d="M465.87,59.37a31.36,31.36,0,0,1,22.69,9.17Q498,77.72,498,93t-9.36,24.79q-9.36,9.55-21.82,9.55T444.42,116.4v34H430.54v-90h13.89V71.89Q452.6,59.37,465.87,59.37ZM444.18,93.47q0,9.42,5.7,15.43a18.41,18.41,0,0,0,13.89,6A19.72,19.72,0,0,0,478,109q6.07-6,6.08-15.44a22,22,0,0,0-6-15.74,19,19,0,0,0-14.26-6.26,18.21,18.21,0,0,0-14,6.26Q444.17,84,444.18,93.47Z"/><path class="cls-1" d="M575.21,99.42h-51.7A15,15,0,0,0,530.09,111a23.06,23.06,0,0,0,13.89,4.4q12.39,0,18.84-7.81l7.93,8.68q-10.66,11-27.77,11a33,33,0,0,1-23.62-9.23q-9.73-9.23-9.73-24.79t9.92-24.73a33.29,33.29,0,0,1,23.37-9.17q13.45,0,22.87,8.12t9.42,22.38Zm-51.7-10.91h37.81q0-8.3-5.21-12.77a19,19,0,0,0-12.83-4.46,22,22,0,0,0-13.7,4.65A15,15,0,0,0,523.51,88.51Z"/><path class="cls-1" d="M604.34,126.32H590.46v-92h13.88V88.38l26.78-28H649l-25,26.16,26.9,39.79H634L614.38,97.43l-10,10.17Z"/><path class="cls-1" d="M679.59,71.52V105a10.87,10.87,0,0,0,2.48,7.5,8.81,8.81,0,0,0,6.94,2.79q4.46,0,8.55-4.34l5.7,9.79q-7.32,6.57-16.18,6.57A20.81,20.81,0,0,1,672,121.17q-6.26-6.14-6.26-16.55V71.52H657.4V60.37h8.31V39.66h13.88v20.7h17.36V71.52Z"/><path class="cls-1" d="M769,126.32H756.39v-8.8q-8.18,9.79-21.94,9.79-10.29,0-17-5.83t-6.76-15.56q0-9.73,7.19-14.57t19.46-4.84h18V84q0-13.14-14.63-13.14-9.18,0-19.09,6.69l-6.2-8.68a42.7,42.7,0,0,1,27.27-9.55q11.65,0,19,5.89T769,83.79Zm-13.89-24.55V96.19H739.52q-15,0-15,9.42a8.38,8.38,0,0,0,3.72,7.38q3.72,2.54,10.35,2.54a18.78,18.78,0,0,0,11.59-3.72A11.9,11.9,0,0,0,755.14,101.77Z"/><path class="cls-2" d="M108.06,76.12,6.77,144.36A2.83,2.83,0,0,1,2.35,142V105.33A2.83,2.83,0,0,1,3.6,103L104.27,35.16a2.83,2.83,0,0,1,4.42,2.35V74.94A1.42,1.42,0,0,1,108.06,76.12Z"/><path class="cls-3" d="M107.43,33.21,59.57,1A5.67,5.67,0,0,0,56.4,0H2.84A2.83,2.83,0,0,0,1.26,5.19l103,69.4a2.83,2.83,0,0,0,4.42-2.35V35.56A2.83,2.83,0,0,0,107.43,33.21Z"/><path class="cls-4" d="M75,54.94l31.36-21.12A1.48,1.48,0,0,1,108.68,35V74.83a1.48,1.48,0,0,1-2.31,1.23Z"/><path class="cls-5" d="M5,62.16,34.07,43.51a2.83,2.83,0,0,1,4.36,2.39v118a2.83,2.83,0,0,1-4.34,2.4l-30.41-19a2.83,2.83,0,0,1-1.33-2.4V66.93A5.67,5.67,0,0,1,5,62.16Z"/><path class="cls-6" d="M38.43,123,4.11,146.14a1.13,1.13,0,0,1-1.77-.94V105.33A2.83,2.83,0,0,1,3.6,103L38.43,79.52Z"/></svg>