<svg id="Layer_1" data-name="Layer 1" xmlns="http://www.w3.org/2000/svg" viewBox="0 0 384.16 277.38"><defs><style>.cls-1{fill:#fff;}.cls-2{fill:#44c5ee;}.cls-2,.cls-3,.cls-4,.cls-5,.cls-6{fill-rule:evenodd;}.cls-3{fill:#e84282;}.cls-4{fill:#5c499d;}.cls-5{fill:#fcbe41;}.cls-6{fill:#66b74d;}</style></defs><title>svg logo</title><path class="cls-1" d="M36.61,212.85q5.66,4.73,5.66,14.58t-5.78,14.42q-5.78,4.58-17.72,4.58H9.15v15.9H0V208.12H18.61Q30.94,208.12,36.61,212.85Zm-6.48,22.38q2.75-2.91,2.75-8.53t-3.49-7.95q-3.49-2.33-10.94-2.33H9.15v21.71H19.78Q27.38,238.14,30.13,235.23Z"/><path class="cls-1" d="M73.44,229.22q-6.44,0-9.69,4.19t-3.26,11.25v17.68H51.81V221.08h8.69v8.3a18,18,0,0,1,5.7-6.36,13.74,13.74,0,0,1,7.64-2.56l.08,8.76Z"/><path class="cls-1" d="M117.11,256.79A21.12,21.12,0,0,1,101.59,263a21.11,21.11,0,0,1-15.51-6.17,21.44,21.44,0,0,1,0-30.17,21.11,21.11,0,0,1,15.51-6.17,21.12,21.12,0,0,1,15.51,6.17,21.44,21.44,0,0,1,0,30.17Zm-24.86-5.35a13.49,13.49,0,0,0,18.69,0,14.7,14.7,0,0,0,0-19.47,13.49,13.49,0,0,0-18.69,0,14.7,14.7,0,0,0,0,19.47Z"/><path class="cls-1" d="M162.55,250a11.61,11.61,0,0,1-4.27,9.42A16.58,16.58,0,0,1,147.35,263a29.31,29.31,0,0,1-9.35-1.63,28.07,28.07,0,0,1-8.57-4.58l4.19-6.75q7.21,5.43,14,5.43a7.28,7.28,0,0,0,4.65-1.36,4.22,4.22,0,0,0,1.71-3.45q0-3.1-8.22-5.58a9.55,9.55,0,0,0-.93-.31q-12.87-3.49-12.87-11.63a11,11,0,0,1,4.46-9.19q4.46-3.45,11.59-3.45a24.12,24.12,0,0,1,13.49,4.19l-3.26,6.44a19.44,19.44,0,0,0-10.94-3.33,10,10,0,0,0-5,1.13,3.66,3.66,0,0,0-1.94,3.37,3.08,3.08,0,0,0,2,2.95,19.42,19.42,0,0,0,3.92,1.32q2.52.62,4.46,1.24t3.76,1.4a24.35,24.35,0,0,1,3.92,2.17Q162.55,244.11,162.55,250Z"/><path class="cls-1" d="M194.51,220.46a19.62,19.62,0,0,1,14.19,5.74q5.89,5.74,5.89,15.28T208.74,257a18.53,18.53,0,0,1-13.65,6q-7.79,0-14-6.82v21.25H172.4v-56.3h8.69v7.21Q186.21,220.46,194.51,220.46Zm-13.57,21.33a13.46,13.46,0,0,0,3.57,9.66,11.51,11.51,0,0,0,8.69,3.76,12.33,12.33,0,0,0,8.92-3.72,12.92,12.92,0,0,0,3.8-9.66,13.73,13.73,0,0,0-3.72-9.85,11.88,11.88,0,0,0-8.92-3.92A11.39,11.39,0,0,0,184.5,232,14,14,0,0,0,180.93,241.78Z"/><path class="cls-1" d="M262.91,245.51H230.57a9.39,9.39,0,0,0,4.11,7.25,14.42,14.42,0,0,0,8.69,2.75q7.75,0,11.79-4.89l5,5.43q-6.67,6.9-17.37,6.9A20.67,20.67,0,0,1,228,257.18q-6.09-5.78-6.09-15.51t6.21-15.47a20.82,20.82,0,0,1,14.62-5.74A21.17,21.17,0,0,1,257,225.54q5.89,5.08,5.89,14Zm-32.34-6.83h23.65q0-5.19-3.26-8a11.91,11.91,0,0,0-8-2.79,13.74,13.74,0,0,0-8.57,2.91A9.39,9.39,0,0,0,230.57,238.68Z"/><path class="cls-1" d="M281.13,262.34h-8.69V204.79h8.69V238.6l16.75-17.53h11.17l-15.67,16.36,16.83,24.9H299.67l-12.25-18.07-6.28,6.36Z"/><path class="cls-1" d="M328.21,228.06V249a6.8,6.8,0,0,0,1.55,4.69,5.51,5.51,0,0,0,4.34,1.75,7.39,7.39,0,0,0,5.35-2.71l3.57,6.13A14.81,14.81,0,0,1,332.9,263a13,13,0,0,1-9.46-3.84q-3.92-3.84-3.92-10.35V228.06h-5.2v-7h5.2v-13h8.69v13h10.86v7Z"/><path class="cls-1" d="M384.16,262.34h-7.91v-5.51Q371.13,263,362.52,263a15.74,15.74,0,0,1-10.66-3.64,12.2,12.2,0,0,1-4.23-9.73q0-6.09,4.5-9.11t12.18-3h11.25v-1.55q0-8.22-9.15-8.22-5.74,0-11.94,4.19l-3.88-5.43a26.71,26.71,0,0,1,17.06-6q7.29,0,11.91,3.68t4.61,11.59ZM375.48,247v-3.49H365.7q-9.39,0-9.38,5.89a5.24,5.24,0,0,0,2.33,4.62,11.36,11.36,0,0,0,6.48,1.59,11.75,11.75,0,0,0,7.25-2.33A7.44,7.44,0,0,0,375.48,247Z"/><path class="cls-2" d="M245.85,76.12,144.56,144.36a2.83,2.83,0,0,1-4.42-2.35V105.33a2.83,2.83,0,0,1,1.25-2.35L242.06,35.16a2.83,2.83,0,0,1,4.42,2.35V74.94A1.42,1.42,0,0,1,245.85,76.12Z"/><path class="cls-3" d="M245.22,33.21,197.36,1a5.67,5.67,0,0,0-3.17-1H140.63A2.83,2.83,0,0,0,139,5.19l103,69.4a2.83,2.83,0,0,0,4.42-2.35V35.56A2.83,2.83,0,0,0,245.22,33.21Z"/><path class="cls-4" d="M212.81,54.94l31.36-21.12A1.48,1.48,0,0,1,246.47,35V74.83a1.48,1.48,0,0,1-2.31,1.23Z"/><path class="cls-5" d="M142.75,62.16l29.11-18.65a2.83,2.83,0,0,1,4.36,2.39v118a2.83,2.83,0,0,1-4.34,2.4l-30.41-19a2.83,2.83,0,0,1-1.33-2.4V66.93A5.67,5.67,0,0,1,142.75,62.16Z"/><path class="cls-6" d="M176.22,123,141.9,146.14a1.13,1.13,0,0,1-1.77-.94V105.33a2.83,2.83,0,0,1,1.25-2.35l34.83-23.46Z"/></svg>