<svg id="Layer_1" data-name="Layer 1" xmlns="http://www.w3.org/2000/svg" viewBox="0 0 108.69 166.7"><defs><style>.cls-1{fill:#44c5ee;}.cls-1,.cls-2,.cls-3,.cls-4,.cls-5{fill-rule:evenodd;}.cls-2{fill:#e84282;}.cls-3{fill:#5c499d;}.cls-4{fill:#fcbe41;}.cls-5{fill:#66b74d;}</style></defs><title>svg logo</title><path class="cls-1" d="M108.06,76.12,6.77,144.36A2.83,2.83,0,0,1,2.35,142V105.33A2.83,2.83,0,0,1,3.6,103L104.27,35.16a2.83,2.83,0,0,1,4.42,2.35V74.94A1.42,1.42,0,0,1,108.06,76.12Z"/><path class="cls-2" d="M107.43,33.21,59.57,1A5.67,5.67,0,0,0,56.4,0H2.84A2.83,2.83,0,0,0,1.26,5.19l103,69.4a2.83,2.83,0,0,0,4.42-2.35V35.56A2.83,2.83,0,0,0,107.43,33.21Z"/><path class="cls-3" d="M75,54.94l31.36-21.12A1.48,1.48,0,0,1,108.68,35V74.83a1.48,1.48,0,0,1-2.31,1.23Z"/><path class="cls-4" d="M5,62.16,34.07,43.51a2.83,2.83,0,0,1,4.36,2.39v118a2.83,2.83,0,0,1-4.34,2.4l-30.41-19a2.83,2.83,0,0,1-1.33-2.4V66.93A5.67,5.67,0,0,1,5,62.16Z"/><path class="cls-5" d="M38.43,123,4.11,146.14a1.13,1.13,0,0,1-1.77-.94V105.33A2.83,2.83,0,0,1,3.6,103L38.43,79.52Z"/></svg>