<svg id="Layer_1" data-name="Layer 1" xmlns="http://www.w3.org/2000/svg" viewBox="0 0 677.5 84.5"><defs><style>.cls-1{fill:#231f20;}</style></defs><title>prospekta</title><path class="cls-1" d="M.87,4.62a2.66,2.66,0,0,1,.6-1.82,2.27,2.27,0,0,1,1.8-.68H38a23.69,23.69,0,0,1,7.07,1A24.12,24.12,0,0,1,51.21,6a24.84,24.84,0,0,1,5,4.35A28,28,0,0,1,60,15.83,27.69,27.69,0,0,1,62.37,22a26.8,26.8,0,0,1-1,16.14,26.29,26.29,0,0,1-5,8.33,25.63,25.63,0,0,1-7.84,5.9,23,23,0,0,1-10.12,2.31H21.93v25.9q0,2.34-2.5,2.34H3.27a2.55,2.55,0,0,1-1.74-.57,2.23,2.23,0,0,1-.65-1.77Zm41,23.84a9.82,9.82,0,0,0-.57-3.27,9.08,9.08,0,0,0-1.66-2.91A8.84,8.84,0,0,0,37,20.18a7.43,7.43,0,0,0-3.51-.82H21.93V37.54H33.47A7.8,7.8,0,0,0,37,36.75a8.23,8.23,0,0,0,2.64-2,9,9,0,0,0,1.63-2.88A10.13,10.13,0,0,0,41.85,28.45Z"/><path class="cls-1" d="M75.1,4.62a2.66,2.66,0,0,1,.6-1.82,2.27,2.27,0,0,1,1.8-.68h35.16a26.43,26.43,0,0,1,10.5,2.1A27.41,27.41,0,0,1,131.7,9.9a26.56,26.56,0,0,1,5.74,8.41,25.45,25.45,0,0,1,2.1,10.26,24.34,24.34,0,0,1-1,7,26.3,26.3,0,0,1-2.8,6.26,26.58,26.58,0,0,1-4.27,5.28A27.93,27.93,0,0,1,126,51.2l14,26.34q.38.76,1,1.8a3.73,3.73,0,0,1,.6,1.8,1.62,1.62,0,0,1-.57,1.33,2.39,2.39,0,0,1-1.55.46H120.81a2.71,2.71,0,0,1-1.66-.54,2.46,2.46,0,0,1-1-1.47L105,56H96.16V80.59q0,2.34-2.5,2.34H77.5a2.55,2.55,0,0,1-1.74-.57,2.23,2.23,0,0,1-.65-1.77Zm42.61,24.16a9.43,9.43,0,0,0-.6-3.27,10.64,10.64,0,0,0-1.69-3,9.91,9.91,0,0,0-2.61-2.29,8.94,8.94,0,0,0-3.37-1.2l-2.86-.19q-1.33-.08-2.91-.08H96.16v20h10q1,0,1.74-.05t1.69-.16A8.59,8.59,0,0,0,113,37.41a9,9,0,0,0,2.56-2.23,9.85,9.85,0,0,0,1.58-3A10.86,10.86,0,0,0,117.71,28.78Z"/><path class="cls-1" d="M147.81,42.6a41.35,41.35,0,0,1,5.66-21A42.17,42.17,0,0,1,160,13.11a40.6,40.6,0,0,1,8.41-6.5,42.72,42.72,0,0,1,9.94-4.19,41.68,41.68,0,0,1,22.14,0,42.59,42.59,0,0,1,10,4.19,41.32,41.32,0,0,1,14.95,15,43.19,43.19,0,0,1,4.19,10,41.71,41.71,0,0,1,0,22.15,42.12,42.12,0,0,1-4.19,9.9A40.88,40.88,0,0,1,218.87,72a42.56,42.56,0,0,1-8.44,6.5,41.66,41.66,0,0,1-42,0,42.18,42.18,0,0,1-14.92-14.88,40.61,40.61,0,0,1-4.19-9.9A41.27,41.27,0,0,1,147.81,42.6Zm21.06-.05A23.09,23.09,0,0,0,170.39,51a20.83,20.83,0,0,0,4.27,6.83,19.88,19.88,0,0,0,6.49,4.57,21.45,21.45,0,0,0,16.55,0,19.8,19.8,0,0,0,6.52-4.57A20.83,20.83,0,0,0,208.49,51a24.06,24.06,0,0,0,0-16.84,21.1,21.1,0,0,0-4.27-6.88,20.28,20.28,0,0,0-29.57,0,21.09,21.09,0,0,0-4.27,6.88A23.16,23.16,0,0,0,168.87,42.55Z"/><path class="cls-1" d="M251.15,56.81q.92.76,2.37,2a31.67,31.67,0,0,0,3.29,2.53,27.61,27.61,0,0,0,5.5,2.88,15.94,15.94,0,0,0,5.71,1,14.9,14.9,0,0,0,4.65-.62,7.85,7.85,0,0,0,3-1.66,5.88,5.88,0,0,0,1.55-2.39,8.9,8.9,0,0,0,.46-2.88,4.25,4.25,0,0,0-1.28-3,13.26,13.26,0,0,0-3.13-2.37,26.66,26.66,0,0,0-3.86-1.77q-2-.73-3.48-1.22a79.54,79.54,0,0,1-11.43-4.92,35.27,35.27,0,0,1-8.16-5.87,22,22,0,0,1-4.9-7.12,22.2,22.2,0,0,1-1.63-8.67,20.47,20.47,0,0,1,2-9.19,20.18,20.18,0,0,1,5.82-7.07A27.72,27.72,0,0,1,256.76,2,41.31,41.31,0,0,1,268.68.37a39.72,39.72,0,0,1,9.5,1.12,36.19,36.19,0,0,1,9,3.56q1.85,1.09,3.51,2.26a36.67,36.67,0,0,1,2.91,2.26,13.83,13.83,0,0,1,2,2.07,3,3,0,0,1,.73,1.69,2.52,2.52,0,0,1-.35,1.31A8.27,8.27,0,0,1,294.85,16l-8.33,8.87a2.66,2.66,0,0,1-1.85.93,2.37,2.37,0,0,1-1.39-.44,17.46,17.46,0,0,1-1.39-1.09l-.49-.44q-1.09-.93-2.42-1.9a21.63,21.63,0,0,0-2.86-1.77,19.29,19.29,0,0,0-3.21-1.31,11.64,11.64,0,0,0-3.43-.52,18.13,18.13,0,0,0-3.37.3,9.44,9.44,0,0,0-2.78,1,5.28,5.28,0,0,0-1.9,1.71,4.56,4.56,0,0,0-.71,2.58,4.56,4.56,0,0,0,.76,2.64,7.54,7.54,0,0,0,2.29,2.07,21.06,21.06,0,0,0,3.78,1.8q2.26.84,5.25,1.82,5.77,1.91,10.64,4a35.87,35.87,0,0,1,8.41,5A20.47,20.47,0,0,1,297.38,48a21.36,21.36,0,0,1,2,9.63,23.82,23.82,0,0,1-2.45,10.86,24.82,24.82,0,0,1-6.72,8.3,31.38,31.38,0,0,1-10,5.31A39.85,39.85,0,0,1,267.75,84a35.17,35.17,0,0,1-12.3-2.24,47.21,47.21,0,0,1-11.27-6,29,29,0,0,1-3.67-3.11q-1.5-1.53-2.37-2.46L238,70a.31.31,0,0,0-.11-.14.38.38,0,0,1-.11-.08.3.3,0,0,0-.11-.14l-.11-.08a3.81,3.81,0,0,1-1.25-2.18,3.1,3.1,0,0,1,1.25-2.07l9.42-9a3.54,3.54,0,0,1,1.85-.82,2,2,0,0,1,1,.33A10.22,10.22,0,0,1,251.15,56.81Z"/><path class="cls-1" d="M311.34,4.62a2.66,2.66,0,0,1,.6-1.82,2.27,2.27,0,0,1,1.8-.68h34.77a23.69,23.69,0,0,1,7.07,1A24.12,24.12,0,0,1,361.68,6a24.84,24.84,0,0,1,5,4.35,28,28,0,0,1,3.78,5.47A27.69,27.69,0,0,1,372.83,22a26.8,26.8,0,0,1-1,16.14,26.29,26.29,0,0,1-5,8.33,25.63,25.63,0,0,1-7.84,5.9,23,23,0,0,1-10.12,2.31H332.4v25.9q0,2.34-2.5,2.34H313.73a2.55,2.55,0,0,1-1.74-.57,2.23,2.23,0,0,1-.65-1.77Zm41,23.84a9.82,9.82,0,0,0-.57-3.27,9.08,9.08,0,0,0-1.66-2.91,8.84,8.84,0,0,0-2.64-2.1,7.43,7.43,0,0,0-3.51-.82H332.4V37.54h11.54a7.8,7.8,0,0,0,3.54-.79,8.23,8.23,0,0,0,2.64-2,9,9,0,0,0,1.63-2.88A10.13,10.13,0,0,0,352.32,28.45Z"/><path class="cls-1" d="M385.46,4.62a2.59,2.59,0,0,1,.62-1.82,2.28,2.28,0,0,1,1.76-.68h54a2.4,2.4,0,0,1,1.85.71,2.69,2.69,0,0,1,.65,1.9V18.18a2.84,2.84,0,0,1-.65,1.76,2.27,2.27,0,0,1-1.91.84H406.52v13.5h27.21a2.86,2.86,0,0,1,1.71.49,1.88,1.88,0,0,1,.68,1.63V48.15a2.26,2.26,0,0,1-.6,1.47,2.16,2.16,0,0,1-1.74.71H406.52V64.26h36.57a2.19,2.19,0,0,1,2.45,2.5V80.43a1.35,1.35,0,0,1-.44,1q-.22,1.52-2.23,1.52h-55a2.54,2.54,0,0,1-1.74-.57,2.23,2.23,0,0,1-.65-1.77Z"/><path class="cls-1" d="M458.82,4.51a2.46,2.46,0,0,1,.62-1.69,2.23,2.23,0,0,1,1.76-.71h16.07a2.94,2.94,0,0,1,1.71.65,2.05,2.05,0,0,1,.9,1.74V34.17q5.93-7.62,11.65-15l11.59-15a4.7,4.7,0,0,1,1.55-1.5,3.63,3.63,0,0,1,1.88-.57h20.68q1.31,0,1.31.82a2.28,2.28,0,0,1-.6,1.31L502.3,38l28.35,42.67a3,3,0,0,1,.6,1.47c0,.54-.4.82-1.2.82H509.48a3.48,3.48,0,0,1-1.82-.54,4.6,4.6,0,0,1-1.5-1.47q-2.89-3.92-5.25-7.51t-4.6-7.16L491.8,59q-2.29-3.65-5-7.67l-6.91,7.95V80.53q0,2.4-2.61,2.39h-16a2.14,2.14,0,0,1-2.44-2.39Z"/><path class="cls-1" d="M537.73,4.5a2.21,2.21,0,0,1,.73-1.74,2.65,2.65,0,0,1,1.82-.65h58.56a2.75,2.75,0,0,1,1.74.6,2.44,2.44,0,0,1,.87,1.79V18a3.05,3.05,0,0,1-.68,1.87,2.28,2.28,0,0,1-1.93.9H580.07V80.37a2.59,2.59,0,0,1-.71,1.77,2.36,2.36,0,0,1-1.85.79h-16a2.55,2.55,0,0,1-1.74-.74,2.36,2.36,0,0,1-.81-1.83V20.78H540.28a2.53,2.53,0,0,1-1.82-.7,2.73,2.73,0,0,1-.73-2.06Z"/><path class="cls-1" d="M627.08,4.24a1.59,1.59,0,0,1,.35-.71,4.05,4.05,0,0,1,1.66-1.22,2.55,2.55,0,0,1,.92-.19H644a2.32,2.32,0,0,1,1.58.57,7,7,0,0,1,1,1l1.36,3.1,28.57,73.69a1.6,1.6,0,0,1-.16,1.77,2.65,2.65,0,0,1-2.07.68H658.59a3.41,3.41,0,0,1-1.93-.46,3,3,0,0,1-1.06-1.55q-1.09-2.78-2.12-5.52t-2.07-5.52h-28.9q-1,2.78-2.1,5.52t-2.09,5.52a2.72,2.72,0,0,1-2.78,2H599.49a2.65,2.65,0,0,1-1.71-.54,1.29,1.29,0,0,1-.25-1.63ZM637,27.53q-1,2.78-2.09,6T632.8,40q-1,3.27-2.09,6.45t-2.1,6h16.71Z"/></svg>